<svg xmlns="http://www.w3.org/2000/svg" viewBox="0 0 512 512">
  <defs>
    <filter id="glow" x="-50%" y="-50%" width="200%" height="200%">
      <feGaussianBlur stdDeviation="7" result="b"/>
      <feMerge>
        <feMergeNode in="b"/>
        <feMergeNode in="b"/>
        <feMergeNode in="SourceGraphic"/>
      </feMerge>
    </filter>
    <filter id="soft" x="-50%" y="-50%" width="200%" height="200%">
      <feGaussianBlur stdDeviation="3" result="b"/>
      <feMerge>
        <feMergeNode in="b"/>
        <feMergeNode in="SourceGraphic"/>
      </feMerge>
    </filter>
    <pattern id="grid" width="32" height="32" patternUnits="userSpaceOnUse">
      <path d="M32 0H0V32" fill="none" stroke="#a855f7" stroke-opacity=".13" stroke-width="1.5"/>
    </pattern>
    <linearGradient id="pg" x1="0" y1="0" x2="1" y2="1">
      <stop offset="0" stop-color="#a855f7"/>
      <stop offset="1" stop-color="#36d353"/>
    </linearGradient>
  </defs>
  <mask id="s">
    <rect width="512" height="512" fill="white"/>
    <rect x="0" y="96" width="512" height="5" fill="black"/>
    <rect x="0" y="113" width="512" height="5" fill="black"/>
    <rect x="0" y="130" width="512" height="5" fill="black"/>
    <rect x="0" y="147" width="512" height="5" fill="black"/>
    <rect x="0" y="164" width="512" height="5" fill="black"/>
    <rect x="0" y="181" width="512" height="5" fill="black"/>
    <rect x="0" y="198" width="512" height="5" fill="black"/>
    <rect x="0" y="215" width="512" height="5" fill="black"/>
    <rect x="0" y="232" width="512" height="5" fill="black"/>
    <rect x="0" y="249" width="512" height="5" fill="black"/>
    <rect x="0" y="266" width="512" height="5" fill="black"/>
    <rect x="0" y="283" width="512" height="5" fill="black"/>
    <rect x="0" y="300" width="512" height="5" fill="black"/>
    <rect x="0" y="317" width="512" height="5" fill="black"/>
    <rect x="0" y="334" width="512" height="5" fill="black"/>
    <rect x="0" y="351" width="512" height="5" fill="black"/>
    <rect x="0" y="368" width="512" height="5" fill="black"/>
    <rect x="0" y="385" width="512" height="5" fill="black"/>
    <rect x="0" y="402" width="512" height="5" fill="black"/>
    <rect x="0" y="419" width="512" height="5" fill="black"/>
    <rect x="0" y="436" width="512" height="5" fill="black"/>
  </mask>
  <g mask="url(#s)">
    <g transform="translate(-7 0)" opacity=".85">
      <path d="M 416 150 A 58 58 0 0 0 358 92 L 154 92 A 58 58 0 0 0 96 150 L 96 362 A 58 58 0 0 0 154 420 L 358 420 A 58 58 0 0 0 416 362 L 416 266" fill="none" stroke-width="40" stroke-linecap="round" stroke="#f97316"/>
    </g>
    <g filter="url(#glow)">
      <path d="M 416 150 A 58 58 0 0 0 358 92 L 154 92 A 58 58 0 0 0 96 150 L 96 362 A 58 58 0 0 0 154 420 L 358 420 A 58 58 0 0 0 416 362 L 416 266" fill="none" stroke-width="40" stroke-linecap="round" stroke="#a855f7"/>
    </g>
  </g>
  <g filter="url(#glow)">
    <polygon points="214,186 214,326 338,256" fill="#36d353" stroke="#36d353" stroke-width="18" stroke-linejoin="round"/>
  </g>
</svg>
